<svg width="775" height="135" viewBox="0 0 775 135" fill="none" xmlns="http://www.w3.org/2000/svg">
<g clip-path="url(#clip0)">
<rect width="775" height="135" fill="black"/>
<path d="M250.171 72.3381C250.171 70.0377 249.241 68.1897 247.38 66.794C245.545 65.3982 242.766 64.3126 239.044 63.5372C235.322 62.736 232.427 61.8313 230.36 60.8233C228.318 59.7894 226.793 58.5358 225.785 57.0626C224.803 55.5893 224.312 53.8059 224.312 51.7123C224.312 48.4038 225.694 45.677 228.46 43.5317C231.226 41.3605 234.767 40.275 239.083 40.275C243.761 40.275 247.509 41.4381 250.327 43.7643C253.17 46.0647 254.591 49.0759 254.591 52.7978H249.939C249.939 50.3424 248.905 48.3005 246.837 46.6721C244.795 45.0437 242.211 44.2296 239.083 44.2296C236.033 44.2296 233.578 44.9145 231.717 46.2844C229.882 47.6284 228.964 49.386 228.964 51.5572C228.964 53.6508 229.726 55.2791 231.251 56.4422C232.802 57.5795 235.607 58.6263 239.665 59.5827C243.748 60.539 246.798 61.5599 248.814 62.6455C250.856 63.7311 252.368 65.0364 253.351 66.5613C254.333 68.0863 254.824 69.9344 254.824 72.1055C254.824 75.6465 253.389 78.4768 250.52 80.5962C247.677 82.7157 243.955 83.7754 239.354 83.7754C234.469 83.7754 230.502 82.5994 227.452 80.2473C224.428 77.8694 222.916 74.8711 222.916 71.2526H227.568C227.749 73.9665 228.886 76.0859 230.98 77.6109C233.1 79.11 235.891 79.8596 239.354 79.8596C242.585 79.8596 245.196 79.1488 247.186 77.7272C249.176 76.3056 250.171 74.5093 250.171 72.3381ZM270.487 83H265.835V23.4486H270.487V83ZM299.371 83.7754C295.804 83.7754 292.573 82.8966 289.679 81.139C286.81 79.3814 284.574 76.9389 282.971 73.8114C281.369 70.6581 280.567 67.13 280.567 63.2271V61.5599C280.567 57.5278 281.343 53.8963 282.894 50.6654C284.47 47.4346 286.654 44.9016 289.446 43.0664C292.237 41.2055 295.261 40.275 298.518 40.275C303.61 40.275 307.642 42.0196 310.615 45.509C313.613 48.9725 315.112 53.7154 315.112 59.7377V62.3354H285.181V63.2271C285.181 67.9829 286.538 71.9504 289.252 75.1296C291.992 78.2829 295.429 79.8596 299.565 79.8596C302.046 79.8596 304.23 79.4073 306.117 78.5026C308.03 77.598 309.762 76.1506 311.312 74.1603L314.22 76.3703C310.808 81.307 305.859 83.7754 299.371 83.7754ZM298.518 44.2296C295.029 44.2296 292.082 45.509 289.679 48.0678C287.301 50.6267 285.853 54.0643 285.336 58.3808H310.498V57.8768C310.369 53.8446 309.219 50.5621 307.048 48.0291C304.877 45.4961 302.033 44.2296 298.518 44.2296ZM340.39 83.7754C336.823 83.7754 333.593 82.8966 330.698 81.139C327.829 79.3814 325.593 76.9389 323.99 73.8114C322.388 70.6581 321.587 67.13 321.587 63.2271V61.5599C321.587 57.5278 322.362 53.8963 323.913 50.6654C325.489 47.4346 327.674 44.9016 330.465 43.0664C333.257 41.2055 336.281 40.275 339.537 40.275C344.629 40.275 348.661 42.0196 351.634 45.509C354.632 48.9725 356.131 53.7154 356.131 59.7377V62.3354H326.2V63.2271C326.2 67.9829 327.557 71.9504 330.271 75.1296C333.011 78.2829 336.449 79.8596 340.584 79.8596C343.065 79.8596 345.249 79.4073 347.136 78.5026C349.049 77.598 350.781 76.1506 352.332 74.1603L355.239 76.3703C351.828 81.307 346.878 83.7754 340.39 83.7754ZM339.537 44.2296C336.048 44.2296 333.101 45.509 330.698 48.0678C328.32 50.6267 326.872 54.0643 326.355 58.3808H351.517V57.8768C351.388 53.8446 350.238 50.5621 348.067 48.0291C345.896 45.4961 343.053 44.2296 339.537 44.2296ZM398.895 62.4517C398.895 68.9909 397.447 74.1862 394.553 78.0374C391.658 81.8627 387.781 83.7754 382.921 83.7754C377.183 83.7754 372.789 81.7593 369.739 77.7272V99.1285H365.126V41.0504H369.429L369.662 46.9823C372.686 42.5107 377.067 40.275 382.805 40.275C387.819 40.275 391.748 42.1747 394.591 45.9742C397.46 49.7737 398.895 55.0465 398.895 61.7926V62.4517ZM394.242 61.6375C394.242 56.2872 393.144 52.0612 390.947 48.9595C388.75 45.8579 385.687 44.3071 381.758 44.3071C378.915 44.3071 376.473 44.992 374.431 46.3619C372.389 47.7318 370.825 49.722 369.739 52.3326V72.4544C370.851 74.8582 372.441 76.6933 374.508 77.9598C376.576 79.2263 379.019 79.8596 381.836 79.8596C385.739 79.8596 388.776 78.3088 390.947 75.2071C393.144 72.0797 394.242 67.5564 394.242 61.6375ZM425.22 76.2539C427.572 76.2539 429.524 75.569 431.074 74.1991C432.625 72.8292 433.452 71.1362 433.556 69.1202H442.434C442.331 71.7307 441.517 74.1733 439.992 76.4478C438.467 78.6965 436.399 80.4799 433.788 81.7981C431.178 83.1163 428.36 83.7754 425.336 83.7754C419.469 83.7754 414.817 81.8757 411.379 78.0762C407.941 74.2766 406.222 69.0297 406.222 62.3354V61.3661C406.222 54.9819 407.928 49.8771 411.34 46.0518C414.752 42.2006 419.404 40.275 425.298 40.275C430.286 40.275 434.344 41.7353 437.471 44.656C440.625 47.5509 442.279 51.3633 442.434 56.0933H433.556C433.452 53.6895 432.625 51.7123 431.074 50.1614C429.549 48.6106 427.598 47.8352 425.22 47.8352C422.17 47.8352 419.818 48.9466 418.164 51.1695C416.51 53.3665 415.67 56.7136 415.644 61.211V62.7231C415.644 67.2721 416.458 70.671 418.086 72.9197C419.74 75.1425 422.118 76.2539 425.22 76.2539ZM458.834 45.6253C461.91 42.0584 465.8 40.275 470.504 40.275C479.447 40.275 483.983 45.3797 484.112 55.5893V83H474.691V55.9382C474.691 53.0434 474.058 51.0015 472.791 49.8125C471.551 48.5977 469.716 47.9903 467.286 47.9903C463.512 47.9903 460.695 49.6703 458.834 53.0304V83H449.413V23.4486H458.834V45.6253ZM518.734 83C518.321 82.1987 517.959 80.8935 517.649 79.0842C514.65 82.2117 510.98 83.7754 506.638 83.7754C502.425 83.7754 498.987 82.5735 496.325 80.1698C493.663 77.766 492.332 74.7936 492.332 71.2526C492.332 66.781 493.986 63.3563 497.294 60.9784C500.629 58.5746 505.384 57.3727 511.562 57.3727H517.339V54.62C517.339 52.4489 516.731 50.7171 515.516 49.4248C514.302 48.1066 512.453 47.4475 509.972 47.4475C507.827 47.4475 506.069 47.9903 504.699 49.0759C503.33 50.1356 502.645 51.4926 502.645 53.1468H493.223C493.223 50.8464 493.986 48.7011 495.511 46.7109C497.036 44.6948 499.104 43.1181 501.714 41.9809C504.35 40.8436 507.284 40.275 510.515 40.275C515.426 40.275 519.342 41.5156 522.262 43.9969C525.183 46.4524 526.682 49.9159 526.76 54.3874V73.3074C526.76 77.081 527.29 80.0922 528.349 82.3409V83H518.734ZM508.383 76.2152C510.244 76.2152 511.988 75.7629 513.617 74.8582C515.271 73.9536 516.511 72.7388 517.339 71.2138V63.3046H512.26C508.77 63.3046 506.147 63.912 504.389 65.1268C502.632 66.3416 501.753 68.0605 501.753 70.2833C501.753 72.0926 502.347 73.54 503.536 74.6256C504.751 75.6853 506.367 76.2152 508.383 76.2152ZM546.649 83H537.228V23.4486H546.649V83ZM566.965 83H557.544V23.4486H566.965V83ZM595.732 83.7754C589.762 83.7754 584.915 81.9015 581.193 78.1537C577.497 74.38 575.649 69.3657 575.649 63.1108V61.9476C575.649 57.7604 576.451 54.0256 578.053 50.743C579.681 47.4346 581.956 44.8628 584.877 43.0277C587.797 41.1925 591.054 40.275 594.647 40.275C600.359 40.275 604.766 42.0972 607.868 45.7416C610.995 49.386 612.559 54.5425 612.559 61.211V65.0105H585.148C585.432 68.474 586.583 71.2138 588.599 73.2298C590.641 75.2459 593.199 76.2539 596.275 76.2539C600.592 76.2539 604.107 74.5093 606.821 71.0199L611.9 75.8662C610.22 78.3734 607.971 80.3248 605.154 81.7206C602.362 83.0905 599.222 83.7754 595.732 83.7754ZM594.608 47.8352C592.023 47.8352 589.93 48.7399 588.327 50.5491C586.751 52.3584 585.743 54.8785 585.303 58.1094H603.254V57.4115C603.047 54.2582 602.207 51.8803 600.734 50.2777C599.261 48.6494 597.219 47.8352 594.608 47.8352ZM628.649 41.0504L628.92 45.8967C632.022 42.1489 636.092 40.275 641.133 40.275C649.869 40.275 654.315 45.2764 654.47 55.2791V83H645.048V55.8219C645.048 53.1597 644.467 51.1953 643.304 49.9288C642.166 48.6365 640.293 47.9903 637.682 47.9903C633.883 47.9903 631.052 49.7091 629.191 53.1468V83H619.77V41.0504H628.649ZM662.456 61.715C662.456 55.2016 663.981 50.0064 667.031 46.1293C670.107 42.2264 674.178 40.275 679.244 40.275C684.026 40.275 687.786 41.9421 690.526 45.2764L690.953 41.0504H699.443V81.7206C699.443 87.226 697.725 91.5683 694.287 94.7474C690.875 97.9266 686.261 99.5162 680.446 99.5162C677.37 99.5162 674.359 98.87 671.412 97.5777C668.492 96.3112 666.269 94.6441 664.744 92.5763L669.202 86.9158C672.097 90.3535 675.664 92.0723 679.903 92.0723C683.031 92.0723 685.499 91.2193 687.308 89.5134C689.117 87.8334 690.022 85.3521 690.022 82.0695V79.2393C687.308 82.2634 683.69 83.7754 679.166 83.7754C674.255 83.7754 670.236 81.824 667.109 77.9211C664.007 74.0182 662.456 68.6162 662.456 61.715ZM671.839 62.5292C671.839 66.7423 672.692 70.0636 674.398 72.4932C676.129 74.897 678.52 76.0989 681.57 76.0989C685.37 76.0989 688.187 74.4705 690.022 71.2138V52.7591C688.239 49.5799 685.447 47.9903 681.648 47.9903C678.546 47.9903 676.129 49.218 674.398 51.6735C672.692 54.1289 671.839 57.7475 671.839 62.5292ZM727.629 83.7754C721.659 83.7754 716.813 81.9015 713.091 78.1537C709.394 74.38 707.546 69.3657 707.546 63.1108V61.9476C707.546 57.7604 708.348 54.0256 709.95 50.743C711.579 47.4346 713.853 44.8628 716.774 43.0277C719.694 41.1925 722.951 40.275 726.544 40.275C732.256 40.275 736.663 42.0972 739.765 45.7416C742.892 49.386 744.456 54.5425 744.456 61.211V65.0105H717.045C717.329 68.474 718.48 71.2138 720.496 73.2298C722.538 75.2459 725.096 76.2539 728.172 76.2539C732.489 76.2539 736.004 74.5093 738.718 71.0199L743.797 75.8662C742.117 78.3734 739.868 80.3248 737.051 81.7206C734.259 83.0905 731.119 83.7754 727.629 83.7754ZM726.505 47.8352C723.92 47.8352 721.827 48.7399 720.224 50.5491C718.648 52.3584 717.64 54.8785 717.2 58.1094H735.151V57.4115C734.944 54.2582 734.104 51.8803 732.631 50.2777C731.158 48.6494 729.116 47.8352 726.505 47.8352Z" fill="white"/>
<path d="M65.6782 109H28.6912V103.844L48.2315 82.1321C51.1264 78.8495 53.1166 76.1873 54.2022 74.1454C55.3136 72.0776 55.8693 69.9452 55.8693 67.7482C55.8693 64.8017 54.9776 62.385 53.1941 60.4982C51.4107 58.6113 49.0328 57.6679 46.0604 57.6679C42.4935 57.6679 39.715 58.6889 37.7247 60.7308C35.7604 62.7469 34.7782 65.5642 34.7782 69.1828H27.6057C27.6057 63.9875 29.2728 59.7874 32.607 56.5824C35.9671 53.3773 40.4516 51.7748 46.0604 51.7748C51.3073 51.7748 55.4558 53.1576 58.5057 55.9233C61.5556 58.663 63.0806 62.3204 63.0806 66.8953C63.0806 72.4524 59.5396 79.0692 52.4575 86.7458L37.337 103.146H65.6782V109Z" fill="white"/>
<path d="M90.204 92.816C87.3027 92.816 84.7413 92.1133 82.52 90.708C80.344 89.3027 78.644 87.3307 77.42 84.792C76.196 82.2533 75.584 79.3293 75.584 76.02C75.584 72.5293 76.2867 69.4013 77.692 66.636C79.1427 63.8253 81.1147 61.6267 83.608 60.04C86.1467 58.4533 88.98 57.66 92.108 57.66C94.9187 57.66 97.4347 58.3627 99.656 59.768C101.877 61.128 103.6 63.0547 104.824 65.548C106.048 68.0413 106.66 70.8973 106.66 74.116C106.66 77.652 105.935 80.848 104.484 83.704C103.079 86.56 101.129 88.804 98.636 90.436C96.1427 92.0227 93.332 92.816 90.204 92.816ZM91.428 87.648C94.828 87.648 97.5707 86.5827 99.656 84.452C101.787 82.276 102.852 79.4653 102.852 76.02C102.852 73.5267 102.331 71.3053 101.288 69.356C100.245 67.4067 98.7947 65.888 96.936 64.8C95.1227 63.712 93.0373 63.168 90.68 63.168C87.28 63.168 84.5373 64.256 82.452 66.432C80.412 68.5627 79.392 71.4187 79.392 75C79.392 77.448 79.8907 79.6467 80.888 81.596C81.9307 83.5 83.3587 84.996 85.172 86.084C86.9853 87.1267 89.0707 87.648 91.428 87.648Z" fill="white"/>
<path d="M179.204 93.816C176.303 93.816 173.741 93.1133 171.52 91.708C169.344 90.3027 167.644 88.3307 166.42 85.792C165.196 83.2533 164.584 80.3293 164.584 77.02C164.584 73.5293 165.287 70.4013 166.692 67.636C168.143 64.8253 170.115 62.6267 172.608 61.04C175.147 59.4533 177.98 58.66 181.108 58.66C183.919 58.66 186.435 59.3627 188.656 60.768C190.877 62.128 192.6 64.0547 193.824 66.548C195.048 69.0413 195.66 71.8973 195.66 75.116C195.66 78.652 194.935 81.848 193.484 84.704C192.079 87.56 190.129 89.804 187.636 91.436C185.143 93.0227 182.332 93.816 179.204 93.816ZM180.428 88.648C183.828 88.648 186.571 87.5827 188.656 85.452C190.787 83.276 191.852 80.4653 191.852 77.02C191.852 74.5267 191.331 72.3053 190.288 70.356C189.245 68.4067 187.795 66.888 185.936 65.8C184.123 64.712 182.037 64.168 179.68 64.168C176.28 64.168 173.537 65.256 171.452 67.432C169.412 69.5627 168.392 72.4187 168.392 76C168.392 78.448 168.891 80.6467 169.888 82.596C170.931 84.5 172.359 85.996 174.172 87.084C175.985 88.1267 178.071 88.648 180.428 88.648Z" fill="white"/>
<path d="M155.678 109H118.691V103.844L138.232 82.1321C141.126 78.8495 143.117 76.1873 144.202 74.1454C145.314 72.0776 145.869 69.9452 145.869 67.7482C145.869 64.8017 144.978 62.385 143.194 60.4982C141.411 58.6113 139.033 57.6679 136.06 57.6679C132.494 57.6679 129.715 58.6889 127.725 60.7308C125.76 62.7469 124.778 65.5642 124.778 69.1828H117.606C117.606 63.9875 119.273 59.7874 122.607 56.5824C125.967 53.3773 130.452 51.7748 136.06 51.7748C141.307 51.7748 145.456 53.1576 148.506 55.9233C151.556 58.663 153.081 62.3204 153.081 66.8953C153.081 72.4524 149.54 79.0692 142.458 86.7458L127.337 103.146H155.678V109Z" fill="white"/>
<path d="M74 107H110.5M162 107H764V28.5H582.5M530.5 28.5H472.5M442.5 28.5H284M254 28.5H17V107H24" stroke="#FFC805" stroke-width="6"/>
<circle cx="90.5" cy="76.5" r="5.5" fill="white"/>
<circle cx="180.5" cy="76.5" r="5.5" fill="white"/>
</g>
<defs>
<clipPath id="clip0">
<rect width="775" height="135" fill="white"/>
</clipPath>
</defs>
</svg>
