<svg width="351" height="99" viewBox="0 0 351 99" fill="none" xmlns="http://www.w3.org/2000/svg">
<path d="M46.2592 27H30.36V25.3961L39.0593 15.5289C40.5004 13.8669 41.4999 12.4955 42.0578 11.4146C42.6156 10.3338 42.8946 9.28196 42.8946 8.25921C42.8946 6.65534 42.4239 5.38853 41.4825 4.45875C40.5411 3.51735 39.2452 3.04665 37.5949 3.04665C35.8864 3.04665 34.5034 3.5929 33.4457 4.68538C32.3997 5.77787 31.8767 7.19578 31.8767 8.93911H29.8022C29.8022 7.50958 30.1218 6.20789 30.761 5.03405C31.4118 3.86021 32.33 2.94205 33.5155 2.27959C34.7126 1.6055 36.0724 1.26846 37.5949 1.26846C39.9193 1.26846 41.7324 1.87862 43.034 3.09895C44.3474 4.31928 45.004 5.98126 45.004 8.08487C45.004 9.27034 44.6321 10.5662 43.8883 11.9725C43.1561 13.3788 41.8602 15.1337 40.0007 17.2374L32.9227 25.2392H46.2592V27ZM65.4707 16.418C65.4707 19.9976 64.814 22.7172 63.5007 24.5768C62.1874 26.4247 60.2523 27.3487 57.6954 27.3487C55.1851 27.3487 53.2616 26.4421 51.925 24.6291C50.5885 22.8044 49.9028 20.1545 49.8679 16.6795V12.1294C49.8679 8.56138 50.5304 5.85922 51.8553 4.02292C53.1802 2.18661 55.1153 1.26846 57.6606 1.26846C60.171 1.26846 62.0886 2.15755 63.4136 3.93575C64.7385 5.70232 65.4242 8.31151 65.4707 11.7633V16.418ZM63.3787 11.8679C63.3787 8.96235 62.9022 6.76576 61.9492 5.27811C61.0078 3.79047 59.5782 3.04665 57.6606 3.04665C55.7778 3.04665 54.3599 3.77304 53.4069 5.22581C52.4538 6.67859 51.9657 8.82288 51.9425 11.6587V16.6446C51.9425 19.5385 52.4306 21.7526 53.4069 23.2867C54.3947 24.8208 55.8243 25.5879 57.6954 25.5879C59.555 25.5879 60.9613 24.8383 61.9143 23.339C62.8789 21.8397 63.3671 19.6431 63.3787 16.7492V11.8679ZM85.8677 27H69.9685V25.3961L78.6677 15.5289C80.1089 13.8669 81.1084 12.4955 81.6662 11.4146C82.2241 10.3338 82.503 9.28196 82.503 8.25921C82.503 6.65534 82.0323 5.38853 81.0909 4.45875C80.1495 3.51735 78.8537 3.04665 77.2033 3.04665C75.4948 3.04665 74.1118 3.5929 73.0542 4.68538C72.0082 5.77787 71.4852 7.19578 71.4852 8.93911H69.4106C69.4106 7.50958 69.7302 6.20789 70.3695 5.03405C71.0203 3.86021 71.9384 2.94205 73.1239 2.27959C74.321 1.6055 75.6808 1.26846 77.2033 1.26846C79.5277 1.26846 81.3408 1.87862 82.6425 3.09895C83.9558 4.31928 84.6125 5.98126 84.6125 8.08487C84.6125 9.27034 84.2405 10.5662 83.4967 11.9725C82.7645 13.3788 81.4686 15.1337 79.6091 17.2374L72.5312 25.2392H85.8677V27ZM105.079 16.418C105.079 19.9976 104.422 22.7172 103.109 24.5768C101.796 26.4247 99.8608 27.3487 97.3039 27.3487C94.7935 27.3487 92.87 26.4421 91.5335 24.6291C90.1969 22.8044 89.5112 20.1545 89.4763 16.6795V12.1294C89.4763 8.56138 90.1388 5.85922 91.4637 4.02292C92.7887 2.18661 94.7238 1.26846 97.269 1.26846C99.7794 1.26846 101.697 2.15755 103.022 3.93575C104.347 5.70232 105.033 8.31151 105.079 11.7633V16.418ZM102.987 11.8679C102.987 8.96235 102.511 6.76576 101.558 5.27811C100.616 3.79047 99.1867 3.04665 97.269 3.04665C95.3862 3.04665 93.9683 3.77304 93.0153 5.22581C92.0623 6.67859 91.5742 8.82288 91.5509 11.6587V16.6446C91.5509 19.5385 92.039 21.7526 93.0153 23.2867C94.0032 24.8208 95.4327 25.5879 97.3039 25.5879C99.1634 25.5879 100.57 24.8383 101.523 23.339C102.487 21.8397 102.976 19.6431 102.987 16.7492V11.8679ZM120.926 27H118.834V8.13717H120.926V27ZM118.468 2.68055C118.468 2.2854 118.596 1.95417 118.851 1.68686C119.107 1.40792 119.456 1.26846 119.897 1.26846C120.339 1.26846 120.688 1.40792 120.943 1.68686C121.211 1.95417 121.344 2.2854 121.344 2.68055C121.344 3.07571 121.211 3.40694 120.943 3.67425C120.688 3.94156 120.339 4.07522 119.897 4.07522C119.456 4.07522 119.107 3.94156 118.851 3.67425C118.596 3.40694 118.468 3.07571 118.468 2.68055ZM137.906 22.2058C137.906 21.1715 137.488 20.3405 136.651 19.7129C135.826 19.0853 134.576 18.5972 132.903 18.2485C131.229 17.8882 129.927 17.4814 128.998 17.0282C128.079 16.5633 127.394 15.9996 126.941 15.3371C126.499 14.6747 126.278 13.8727 126.278 12.9313C126.278 11.4437 126.9 10.2175 128.143 9.25291C129.387 8.27664 130.979 7.78851 132.92 7.78851C135.024 7.78851 136.709 8.31151 137.976 9.35751C139.254 10.3919 139.893 11.7459 139.893 13.4195H137.801C137.801 12.3154 137.337 11.3972 136.407 10.665C135.489 9.9328 134.326 9.5667 132.92 9.5667C131.549 9.5667 130.445 9.87469 129.608 10.4907C128.783 11.095 128.37 11.8853 128.37 12.8616C128.37 13.803 128.713 14.5352 129.399 15.0582C130.096 15.5696 131.357 16.0403 133.182 16.4703C135.018 16.9003 136.389 17.3594 137.296 17.8475C138.214 18.3357 138.894 18.9226 139.336 19.6083C139.777 20.294 139.998 21.125 139.998 22.1012C139.998 23.6935 139.353 24.9661 138.063 25.9191C136.785 26.8722 135.111 27.3487 133.042 27.3487C130.846 27.3487 129.062 26.8199 127.69 25.7622C126.33 24.693 125.65 23.3448 125.65 21.7177H127.742C127.824 22.938 128.335 23.8911 129.277 24.5768C130.23 25.2509 131.485 25.5879 133.042 25.5879C134.495 25.5879 135.669 25.2683 136.564 24.6291C137.459 23.9899 137.906 23.1821 137.906 22.2058ZM156.629 3.30815V8.13717H160.534V9.84564H156.629V22.415C156.629 23.461 156.815 24.2397 157.187 24.7511C157.571 25.2625 158.204 25.5182 159.087 25.5182C159.436 25.5182 160 25.4601 160.779 25.3438L160.866 27.0523C160.319 27.2499 159.576 27.3487 158.634 27.3487C157.205 27.3487 156.165 26.9361 155.514 26.1109C154.863 25.2741 154.537 24.048 154.537 22.4325V9.84564H151.068V8.13717H154.537V3.30815H156.629ZM166.932 11.3275C167.618 10.2001 168.496 9.32845 169.565 8.71247C170.634 8.0965 171.802 7.78851 173.069 7.78851C175.091 7.78851 176.596 8.358 177.584 9.49697C178.572 10.6359 179.072 12.3444 179.083 14.6224V27H177.009V14.6049C176.997 12.9197 176.637 11.6645 175.928 10.8393C175.231 10.0142 174.109 9.60157 172.563 9.60157C171.273 9.60157 170.129 10.0083 169.129 10.8219C168.141 11.6238 167.409 12.7105 166.932 14.0819V27H164.858V0.222459H166.932V11.3275ZM191.757 27.3487C190.154 27.3487 188.701 26.9535 187.399 26.1632C186.109 25.3729 185.104 24.2746 184.383 22.8683C183.663 21.4504 183.302 19.864 183.302 18.109V17.3594C183.302 15.5463 183.651 13.9134 184.348 12.4606C185.057 11.0079 186.039 9.86888 187.295 9.04371C188.55 8.20691 189.91 7.78851 191.374 7.78851C193.664 7.78851 195.477 8.57301 196.813 10.142C198.161 11.6994 198.835 13.8321 198.835 16.54V17.7081H185.377V18.109C185.377 20.2475 185.987 22.0315 187.207 23.461C188.439 24.8789 189.985 25.5879 191.845 25.5879C192.96 25.5879 193.942 25.3845 194.791 24.9777C195.651 24.571 196.43 23.9201 197.127 23.0252L198.434 24.0189C196.9 26.2387 194.675 27.3487 191.757 27.3487ZM191.374 9.5667C189.805 9.5667 188.48 10.142 187.399 11.2926C186.33 12.4432 185.679 13.989 185.447 15.9299H196.761V15.7032C196.703 13.8902 196.186 12.4141 195.209 11.2752C194.233 10.1362 192.955 9.5667 191.374 9.5667ZM217.559 24.0015L223.068 8.13717H225.317L217.262 30.2077L216.844 31.184C215.81 33.4736 214.212 34.6183 212.05 34.6183C211.55 34.6183 211.015 34.537 210.446 34.3743L210.429 32.6484L211.509 32.753C212.532 32.753 213.357 32.4973 213.985 31.9859C214.624 31.4862 215.165 30.6203 215.606 29.3884L216.53 26.8431L209.417 8.13717H211.701L217.559 24.0015ZM235.62 27.3487C234.016 27.3487 232.563 26.9535 231.261 26.1632C229.971 25.3729 228.966 24.2746 228.245 22.8683C227.525 21.4504 227.165 19.864 227.165 18.109V17.3594C227.165 15.5463 227.513 13.9134 228.211 12.4606C228.919 11.0079 229.902 9.86888 231.157 9.04371C232.412 8.20691 233.772 7.78851 235.236 7.78851C237.526 7.78851 239.339 8.57301 240.675 10.142C242.023 11.6994 242.698 13.8321 242.698 16.54V17.7081H229.239V18.109C229.239 20.2475 229.849 22.0315 231.07 23.461C232.302 24.8789 233.847 25.5879 235.707 25.5879C236.823 25.5879 237.805 25.3845 238.653 24.9777C239.513 24.571 240.292 23.9201 240.989 23.0252L242.297 24.0189C240.762 26.2387 238.537 27.3487 235.62 27.3487ZM235.236 9.5667C233.667 9.5667 232.342 10.142 231.261 11.2926C230.192 12.4432 229.541 13.989 229.309 15.9299H240.623V15.7032C240.565 13.8902 240.048 12.4141 239.071 11.2752C238.095 10.1362 236.817 9.5667 235.236 9.5667ZM258.666 27C258.457 26.4073 258.324 25.5298 258.266 24.3676C257.533 25.3206 256.598 26.0586 255.459 26.5816C254.331 27.093 253.134 27.3487 251.867 27.3487C250.054 27.3487 248.584 26.8431 247.457 25.832C246.341 24.8208 245.783 23.5424 245.783 21.9966C245.783 20.1603 246.545 18.7076 248.067 17.6383C249.601 16.5691 251.734 16.0345 254.465 16.0345H258.248V13.8902C258.248 12.542 257.83 11.4844 256.993 10.7173C256.168 9.93862 254.959 9.54927 253.367 9.54927C251.914 9.54927 250.711 9.92118 249.758 10.665C248.805 11.4088 248.329 12.3037 248.329 13.3497L246.237 13.3323C246.237 11.833 246.934 10.5372 248.329 9.44467C249.723 8.34056 251.437 7.78851 253.471 7.78851C255.575 7.78851 257.231 8.31732 258.44 9.37494C259.66 10.4209 260.288 11.8853 260.323 13.7681V22.694C260.323 24.5187 260.514 25.8843 260.898 26.7908V27H258.666ZM252.112 25.5007C253.506 25.5007 254.75 25.1637 255.842 24.4896C256.946 23.8155 257.748 22.9148 258.248 21.7874V17.6383H254.517C252.437 17.6616 250.81 18.0451 249.636 18.7889C248.462 19.5211 247.875 20.5322 247.875 21.8223C247.875 22.8799 248.265 23.7574 249.043 24.4547C249.834 25.1521 250.856 25.5007 252.112 25.5007ZM274.618 9.91537C274.176 9.83402 273.706 9.79334 273.206 9.79334C271.904 9.79334 270.8 10.1594 269.894 10.8916C268.999 11.6122 268.359 12.664 267.976 14.0471V27H265.901V8.13717H267.941L267.976 11.1357C269.08 8.90424 270.852 7.78851 273.293 7.78851C273.874 7.78851 274.333 7.86405 274.67 8.01514L274.618 9.91537ZM289.855 3.30815V8.13717H293.76V9.84564H289.855V22.415C289.855 23.461 290.041 24.2397 290.413 24.7511C290.796 25.2625 291.429 25.5182 292.313 25.5182C292.661 25.5182 293.225 25.4601 294.004 25.3438L294.091 27.0523C293.545 27.2499 292.801 27.3487 291.859 27.3487C290.43 27.3487 289.39 26.9361 288.739 26.1109C288.088 25.2741 287.763 24.048 287.763 22.4325V9.84564H284.293V8.13717H287.763V3.30815H289.855ZM296.584 17.2897C296.584 15.4766 296.933 13.8437 297.63 12.3909C298.339 10.9381 299.333 9.81077 300.611 9.00884C301.901 8.19529 303.36 7.78851 304.987 7.78851C307.497 7.78851 309.531 8.6718 311.088 10.4384C312.646 12.1933 313.424 14.5236 313.424 17.4291V17.865C313.424 19.6896 313.07 21.3342 312.361 22.7986C311.664 24.2514 310.676 25.3729 309.397 26.1632C308.119 26.9535 306.66 27.3487 305.022 27.3487C302.523 27.3487 300.489 26.4712 298.92 24.7162C297.363 22.9497 296.584 20.6136 296.584 17.7081V17.2897ZM298.676 17.865C298.676 20.1197 299.257 21.9734 300.419 23.4262C301.593 24.8673 303.127 25.5879 305.022 25.5879C306.904 25.5879 308.427 24.8673 309.589 23.4262C310.763 21.9734 311.35 20.0615 311.35 17.6906V17.2897C311.35 15.8485 311.083 14.5294 310.548 13.3323C310.013 12.1352 309.264 11.2112 308.299 10.5604C307.334 9.89794 306.23 9.5667 304.987 9.5667C303.127 9.5667 301.61 10.2989 300.437 11.7633C299.263 13.2161 298.676 15.1221 298.676 17.4814V17.865ZM2.2618 91H0.169806V64.2225H2.2618V91ZM15.2496 91.3487C13.6457 91.3487 12.193 90.9535 10.8913 90.1632C9.60122 89.3729 8.5959 88.2746 7.87532 86.8683C7.15475 85.4504 6.79446 83.864 6.79446 82.109V81.3594C6.79446 79.5463 7.14312 77.9134 7.84046 76.4606C8.54941 75.0079 9.53149 73.8689 10.7867 73.0437C12.0419 72.2069 13.4017 71.7885 14.8661 71.7885C17.1556 71.7885 18.9687 72.573 20.3053 74.142C21.6534 75.6994 22.3275 77.8321 22.3275 80.54V81.7081H8.86902V82.109C8.86902 84.2475 9.47919 86.0315 10.6995 87.461C11.9315 88.8789 13.4772 89.5879 15.3368 89.5879C16.4525 89.5879 17.4346 89.3845 18.283 88.9777C19.143 88.571 19.9217 87.9201 20.6191 87.0252L21.9266 88.0189C20.3924 90.2387 18.1668 91.3487 15.2496 91.3487ZM14.8661 73.5667C13.2971 73.5667 11.9721 74.142 10.8913 75.2926C9.82204 76.4432 9.1712 77.989 8.93875 79.9299H20.253V79.7032C20.1949 77.8902 19.6777 76.4141 18.7014 75.2752C17.7251 74.1362 16.4467 73.5667 14.8661 73.5667ZM38.2964 91C38.0872 90.4073 37.9536 89.5298 37.8955 88.3676C37.1633 89.3206 36.2277 90.0586 35.0887 90.5816C33.9613 91.093 32.7643 91.3487 31.4974 91.3487C29.6844 91.3487 28.2142 90.8431 27.0868 89.832C25.9711 88.8208 25.4132 87.5424 25.4132 85.9966C25.4132 84.1603 26.1745 82.7076 27.697 81.6383C29.2311 80.5691 31.3638 80.0345 34.095 80.0345H37.878V77.8902C37.878 76.542 37.4596 75.4844 36.6228 74.7173C35.7976 73.9386 34.5889 73.5493 32.9967 73.5493C31.5439 73.5493 30.341 73.9212 29.388 74.665C28.435 75.4088 27.9585 76.3037 27.9585 77.3497L25.8665 77.3323C25.8665 75.833 26.5638 74.5372 27.9585 73.4447C29.3531 72.3406 31.0674 71.7885 33.1013 71.7885C35.2049 71.7885 36.8611 72.3173 38.0698 73.3749C39.2901 74.4209 39.9177 75.8853 39.9526 77.7681V86.694C39.9526 88.5187 40.1444 89.8843 40.5279 90.7908V91H38.2964ZM31.7415 89.5007C33.1362 89.5007 34.3797 89.1637 35.4722 88.4896C36.5763 87.8155 37.3783 86.9148 37.878 85.7874V81.6383H34.1473C32.0669 81.6616 30.4398 82.0451 29.266 82.7889C28.0921 83.5211 27.5052 84.5322 27.5052 85.8223C27.5052 86.8799 27.8946 87.7574 28.6732 88.4547C29.4636 89.1521 30.4863 89.5007 31.7415 89.5007ZM54.2479 73.9154C53.8062 73.834 53.3355 73.7933 52.8358 73.7933C51.5341 73.7933 50.43 74.1594 49.5235 74.8916C48.6286 75.6122 47.9893 76.664 47.6058 78.0471V91H45.5312V72.1372H47.5709L47.6058 75.1357C48.7099 72.9042 50.4823 71.7885 52.923 71.7885C53.5041 71.7885 53.9631 71.8641 54.3002 72.0151L54.2479 73.9154ZM59.5476 72.1372L59.6173 75.3623C60.3263 74.2001 61.2096 73.3168 62.2672 72.7125C63.3248 72.0965 64.4929 71.7885 65.7713 71.7885C67.7936 71.7885 69.2986 72.358 70.2865 73.497C71.2744 74.6359 71.7742 76.3444 71.7858 78.6224V91H69.7112V78.6049C69.6996 76.9197 69.3393 75.6645 68.6304 74.8393C67.933 74.0142 66.8115 73.6016 65.2657 73.6016C63.9757 73.6016 62.8309 74.0083 61.8314 74.8219C60.8435 75.6238 60.1113 76.7105 59.6348 78.0819V91H57.5602V72.1372H59.5476ZM89.1145 67.3082V72.1372H93.0195V73.8456H89.1145V86.415C89.1145 87.461 89.3004 88.2397 89.6723 88.7511C90.0559 89.2625 90.6893 89.5182 91.5726 89.5182C91.9212 89.5182 92.4849 89.4601 93.2636 89.3438L93.3508 91.0523C92.8045 91.2499 92.0607 91.3487 91.1193 91.3487C89.6898 91.3487 88.6496 90.9361 87.9987 90.1109C87.3479 89.2741 87.0225 88.048 87.0225 86.4325V73.8456H83.5533V72.1372H87.0225V67.3082H89.1145ZM95.8437 81.2897C95.8437 79.4766 96.1924 77.8437 96.8897 76.3909C97.5987 74.9381 98.5924 73.8108 99.8708 73.0088C101.161 72.1953 102.619 71.7885 104.247 71.7885C106.757 71.7885 108.791 72.6718 110.348 74.4384C111.906 76.1933 112.684 78.5236 112.684 81.4291V81.865C112.684 83.6896 112.33 85.3342 111.621 86.7986C110.924 88.2514 109.936 89.3729 108.657 90.1632C107.379 90.9535 105.92 91.3487 104.281 91.3487C101.783 91.3487 99.7488 90.4712 98.1798 88.7162C96.6224 86.9497 95.8437 84.6136 95.8437 81.7081V81.2897ZM97.9357 81.865C97.9357 84.1197 98.5168 85.9734 99.6791 87.4262C100.853 88.8673 102.387 89.5879 104.281 89.5879C106.164 89.5879 107.687 88.8673 108.849 87.4262C110.023 85.9734 110.61 84.0615 110.61 81.6906V81.2897C110.61 79.8485 110.342 78.5294 109.808 77.3323C109.273 76.1352 108.524 75.2112 107.559 74.5604C106.594 73.8979 105.49 73.5667 104.247 73.5667C102.387 73.5667 100.87 74.2989 99.6965 75.7633C98.5226 77.2161 97.9357 79.1221 97.9357 81.4814V81.865ZM127.189 91V73.8456H124.068V72.1372H127.189V69.8534C127.189 67.9241 127.677 66.4423 128.653 65.4079C129.641 64.3735 131.013 63.8564 132.767 63.8564C133.558 63.8564 134.296 63.9551 134.981 64.1527L134.825 65.8961C134.243 65.7566 133.61 65.6869 132.924 65.6869C131.774 65.6869 130.879 66.0471 130.24 66.7677C129.6 67.4767 129.281 68.4878 129.281 69.8011V72.1372H133.779V73.8456H129.281V91H127.189ZM149.416 91C149.207 90.4073 149.073 89.5298 149.015 88.3676C148.283 89.3206 147.347 90.0586 146.209 90.5816C145.081 91.093 143.884 91.3487 142.617 91.3487C140.804 91.3487 139.334 90.8431 138.207 89.832C137.091 88.8208 136.533 87.5424 136.533 85.9966C136.533 84.1603 137.294 82.7076 138.817 81.6383C140.351 80.5691 142.484 80.0345 145.215 80.0345H148.998V77.8902C148.998 76.542 148.579 75.4844 147.743 74.7173C146.917 73.9386 145.709 73.5493 144.117 73.5493C142.664 73.5493 141.461 73.9212 140.508 74.665C139.555 75.4088 139.078 76.3037 139.078 77.3497L136.986 77.3323C136.986 75.833 137.684 74.5372 139.078 73.4447C140.473 72.3406 142.187 71.7885 144.221 71.7885C146.325 71.7885 147.981 72.3173 149.19 73.3749C150.41 74.4209 151.038 75.8853 151.072 77.7681V86.694C151.072 88.5187 151.264 89.8843 151.648 90.7908V91H149.416ZM142.861 89.5007C144.256 89.5007 145.5 89.1637 146.592 88.4896C147.696 87.8155 148.498 86.9148 148.998 85.7874V81.6383H145.267C143.187 81.6616 141.56 82.0451 140.386 82.7889C139.212 83.5211 138.625 84.5322 138.625 85.8223C138.625 86.8799 139.014 87.7574 139.793 88.4547C140.583 89.1521 141.606 89.5007 142.861 89.5007ZM158.987 91H156.895V64.2225H158.987V91ZM167.006 91H164.914V64.2225H167.006V91ZM193.278 91C193.069 90.4073 192.936 89.5298 192.877 88.3676C192.145 89.3206 191.21 90.0586 190.071 90.5816C188.943 91.093 187.746 91.3487 186.479 91.3487C184.666 91.3487 183.196 90.8431 182.069 89.832C180.953 88.8208 180.395 87.5424 180.395 85.9966C180.395 84.1603 181.156 82.7076 182.679 81.6383C184.213 80.5691 186.346 80.0345 189.077 80.0345H192.86V77.8902C192.86 76.542 192.442 75.4844 191.605 74.7173C190.78 73.9386 189.571 73.5493 187.979 73.5493C186.526 73.5493 185.323 73.9212 184.37 74.665C183.417 75.4088 182.94 76.3037 182.94 77.3497L180.848 77.3323C180.848 75.833 181.546 74.5372 182.94 73.4447C184.335 72.3406 186.049 71.7885 188.083 71.7885C190.187 71.7885 191.843 72.3173 193.052 73.3749C194.272 74.4209 194.9 75.8853 194.935 77.7681V86.694C194.935 88.5187 195.126 89.8843 195.51 90.7908V91H193.278ZM186.724 89.5007C188.118 89.5007 189.362 89.1637 190.454 88.4896C191.558 87.8155 192.36 86.9148 192.86 85.7874V81.6383H189.129C187.049 81.6616 185.422 82.0451 184.248 82.7889C183.074 83.5211 182.487 84.5322 182.487 85.8223C182.487 86.8799 182.877 87.7574 183.655 88.4547C184.446 89.1521 185.468 89.5007 186.724 89.5007ZM211.81 86.2058C211.81 85.1715 211.392 84.3405 210.555 83.7129C209.73 83.0853 208.48 82.5972 206.807 82.2485C205.133 81.8882 203.831 81.4814 202.902 81.0282C201.983 80.5633 201.298 79.9996 200.844 79.3371C200.403 78.6747 200.182 77.8727 200.182 76.9313C200.182 75.4437 200.804 74.2175 202.047 73.2529C203.291 72.2766 204.883 71.7885 206.824 71.7885C208.928 71.7885 210.613 72.3115 211.88 73.3575C213.158 74.3919 213.797 75.7459 213.797 77.4195H211.705C211.705 76.3154 211.241 75.3972 210.311 74.665C209.393 73.9328 208.23 73.5667 206.824 73.5667C205.453 73.5667 204.349 73.8747 203.512 74.4907C202.687 75.095 202.274 75.8853 202.274 76.8616C202.274 77.803 202.617 78.5352 203.303 79.0582C204 79.5696 205.261 80.0403 207.086 80.4703C208.922 80.9003 210.293 81.3594 211.2 81.8475C212.118 82.3357 212.798 82.9226 213.24 83.6083C213.681 84.294 213.902 85.125 213.902 86.1012C213.902 87.6935 213.257 88.9661 211.967 89.9191C210.688 90.8722 209.015 91.3487 206.946 91.3487C204.75 91.3487 202.966 90.8199 201.594 89.7622C200.234 88.693 199.554 87.3448 199.554 85.7177H201.646C201.728 86.938 202.239 87.8911 203.181 88.5768C204.134 89.2509 205.389 89.5879 206.946 89.5879C208.399 89.5879 209.573 89.2683 210.468 88.6291C211.363 87.9899 211.81 87.1821 211.81 86.2058ZM220.945 91H218.853V64.2225H220.945V91ZM233.933 91.3487C232.329 91.3487 230.876 90.9535 229.575 90.1632C228.284 89.3729 227.279 88.2746 226.559 86.8683C225.838 85.4504 225.478 83.864 225.478 82.109V81.3594C225.478 79.5463 225.826 77.9134 226.524 76.4606C227.233 75.0079 228.215 73.8689 229.47 73.0437C230.725 72.2069 232.085 71.7885 233.549 71.7885C235.839 71.7885 237.652 72.573 238.989 74.142C240.337 75.6994 241.011 77.8321 241.011 80.54V81.7081H227.552V82.109C227.552 84.2475 228.162 86.0315 229.383 87.461C230.615 88.8789 232.16 89.5879 234.02 89.5879C235.136 89.5879 236.118 89.3845 236.966 88.9777C237.826 88.571 238.605 87.9201 239.302 87.0252L240.61 88.0189C239.076 90.2387 236.85 91.3487 233.933 91.3487ZM233.549 73.5667C231.98 73.5667 230.655 74.142 229.575 75.2926C228.505 76.4432 227.854 77.989 227.622 79.9299H238.936V79.7032C238.878 77.8902 238.361 76.4141 237.385 75.2752C236.408 74.1362 235.13 73.5667 233.549 73.5667ZM252.377 91.3487C250.773 91.3487 249.321 90.9535 248.019 90.1632C246.729 89.3729 245.724 88.2746 245.003 86.8683C244.282 85.4504 243.922 83.864 243.922 82.109V81.3594C243.922 79.5463 244.271 77.9134 244.968 76.4606C245.677 75.0079 246.659 73.8689 247.914 73.0437C249.17 72.2069 250.529 71.7885 251.994 71.7885C254.283 71.7885 256.096 72.573 257.433 74.142C258.781 75.6994 259.455 77.8321 259.455 80.54V81.7081H245.997V82.109C245.997 84.2475 246.607 86.0315 247.827 87.461C249.059 88.8789 250.605 89.5879 252.464 89.5879C253.58 89.5879 254.562 89.3845 255.411 88.9777C256.271 88.571 257.049 87.9201 257.747 87.0252L259.054 88.0189C257.52 90.2387 255.294 91.3487 252.377 91.3487ZM251.994 73.5667C250.425 73.5667 249.1 74.142 248.019 75.2926C246.95 76.4432 246.299 77.989 246.066 79.9299H257.381V79.7032C257.323 77.8902 256.805 76.4141 255.829 75.2752C254.853 74.1362 253.574 73.5667 251.994 73.5667ZM278.684 81.7604C278.684 84.7008 278.033 87.0368 276.732 88.7685C275.43 90.4886 273.687 91.3487 271.502 91.3487C268.921 91.3487 266.946 90.4421 265.574 88.6291V98.2523H263.5V72.1372H265.435L265.539 74.8045C266.899 72.7938 268.869 71.7885 271.449 71.7885C273.704 71.7885 275.471 72.6427 276.749 74.3512C278.039 76.0597 278.684 78.4306 278.684 81.464V81.7604ZM276.592 81.3943C276.592 78.9885 276.098 77.0882 275.11 75.6936C274.122 74.2989 272.745 73.6016 270.979 73.6016C269.7 73.6016 268.602 73.9096 267.684 74.5255C266.766 75.1415 266.062 76.0364 265.574 77.2103V86.2581C266.074 87.339 266.789 88.1642 267.719 88.7337C268.648 89.3032 269.747 89.5879 271.013 89.5879C272.768 89.5879 274.134 88.8906 275.11 87.4959C276.098 86.0896 276.592 84.0557 276.592 81.3943ZM291.545 76.9702L292.521 77.0216H293.549C295.091 77.0216 296.924 76.7646 299.048 76.2507C302.954 69.0559 307.271 63.42 311.998 59.343C313.403 58.1439 314.534 57.5443 315.39 57.5443C316.487 57.5443 317.035 58.3837 317.035 60.0625C317.035 61.707 316.555 63.2145 315.596 64.5849C315.013 65.3729 314.602 65.7669 314.362 65.7669C314.123 65.7669 314.003 65.6984 314.003 65.5613C314.003 65.4243 314.328 64.7562 314.979 63.5571C315.664 62.3237 316.007 61.313 316.007 60.525C316.007 59.737 315.613 59.343 314.825 59.343C313.592 59.343 311.879 60.5935 309.686 63.0946C307.493 65.5613 305.849 67.7026 304.752 69.5185C303.519 71.4371 302.32 73.4927 301.155 75.6854L308.966 73.1158C309.103 73.1158 309.172 73.1501 309.172 73.2186C309.172 73.4242 308.864 73.664 308.247 73.9381C305.849 74.9317 303.331 75.8225 300.692 76.6105C298.568 80.8245 297.198 84.6789 296.581 88.1735C296.581 88.2077 296.427 89.5439 296.119 92.182C296.05 92.7644 295.639 93.0556 294.885 93.0556C294.131 93.0556 293.72 92.7644 293.652 92.182C293.926 89.4754 294.063 87.6938 294.063 86.8373C294.063 83.2742 293.481 80.9102 292.316 79.7453L291.236 79.0258C290.86 78.786 290.671 78.4263 290.671 77.9466C290.671 77.2957 290.962 76.9702 291.545 76.9702ZM298.534 77.1758C297.164 77.5184 295.279 77.8781 292.881 78.255C294.012 78.8717 294.68 81.3213 294.885 85.6039C295.776 82.8973 296.992 80.0879 298.534 77.1758ZM319.596 84.5247C319.802 84.2506 319.956 84.1136 320.059 84.1136C320.161 84.1136 320.213 84.1992 320.213 84.3705C320.213 84.5076 320.144 84.6617 320.007 84.8331C316.924 89.424 314.543 91.7195 312.864 91.7195C311.939 91.7195 311.236 91.2912 310.757 90.4347C310.311 89.5439 310.089 88.5675 310.089 87.5054C310.089 86.409 310.26 85.1585 310.603 83.7538C308.444 88.5504 306.217 90.9486 303.922 90.9486C302.517 90.9486 301.815 90.0407 301.815 88.2249C301.815 85.3127 303.219 82.2806 306.029 79.1286C308.872 75.9766 311.699 74.4006 314.508 74.4006C315.844 74.4006 316.513 74.9831 316.513 76.1479C316.513 77.5869 315.553 79.0258 313.635 80.4648C312.641 82.9316 312.144 85.3127 312.144 87.6082C312.144 89.8694 312.573 91 313.429 91C314.56 91 316.615 88.8416 319.596 84.5247ZM314.149 78.7175C314.697 77.9638 314.971 77.21 314.971 76.4563C314.971 75.7025 314.611 75.3257 313.892 75.3257C312.179 75.3257 309.934 77.0216 307.159 80.4134C304.384 83.771 302.997 86.3577 302.997 88.1735C302.997 88.9615 303.373 89.3555 304.127 89.3555C306.286 89.3555 308.376 86.9572 310.397 82.1607C309.78 82.332 309.369 82.4177 309.164 82.4177C308.958 82.4177 308.855 82.3663 308.855 82.2635C308.855 82.0922 309.095 81.9209 309.575 81.7496L311.168 80.8245C311.236 80.2421 311.596 79.4884 312.247 78.5633C312.898 77.604 313.515 77.1244 314.097 77.1244C314.303 77.1244 314.405 77.2614 314.405 77.5355C314.405 77.8096 314.32 78.2036 314.149 78.7175ZM333.58 83.3427C333.682 83.3427 333.734 83.4112 333.734 83.5483C333.734 83.6853 333.7 83.8052 333.631 83.908C332.466 85.8609 331.027 87.0086 329.314 87.3512C329.211 88.5504 328.834 89.561 328.184 90.3833C327.567 91.2056 326.539 91.6167 325.1 91.6167C323.695 91.6167 322.359 90.9486 321.092 89.6124C319.824 88.242 319.19 86.7517 319.19 85.1414C319.19 84.0793 319.464 83.5483 320.012 83.5483C320.355 83.5483 320.698 83.8052 321.04 84.3191C322.068 81.9209 323.524 79.2143 325.408 76.1993C326.608 74.3492 328.012 73.4242 329.622 73.4242C329.965 73.4242 330.359 73.5612 330.804 73.8353C331.284 74.0752 331.524 74.3492 331.524 74.6576C331.524 74.8974 331.37 75.0173 331.061 75.0173C330.787 75.0173 330.582 75.0002 330.445 74.9659H330.034C329.246 74.9659 328.56 75.2058 327.978 75.6854C327.43 76.1308 327.156 76.6105 327.156 77.1244C327.156 77.604 327.207 77.998 327.31 78.3064L328.543 82.4177C329.023 84.1307 329.263 85.5354 329.263 86.6317C330.188 86.4947 330.907 86.2035 331.421 85.7581C331.969 85.3127 332.586 84.5761 333.271 83.5483C333.374 83.4112 333.477 83.3427 333.58 83.3427ZM327.156 87.2998C327.19 87.1285 327.207 86.7688 327.207 86.2206C327.207 85.6724 326.95 84.3877 326.436 82.3663C325.957 80.3449 325.717 79.0772 325.717 78.5633C325.717 78.0494 325.734 77.7239 325.768 77.5869C324.877 78.5119 323.421 80.9787 321.4 84.9872C322.839 85.8095 323.918 86.3919 324.638 86.7345C325.357 87.0429 326.196 87.2313 327.156 87.2998ZM324.381 89.9208C325.717 89.9208 326.625 89.2527 327.104 87.9165C324.363 87.9165 322.274 87.3512 320.835 86.2206C320.903 87.0086 321.314 87.8309 322.068 88.6874C322.822 89.5097 323.593 89.9208 324.381 89.9208ZM350.945 74.452C350.945 75.0345 348.05 76.1479 342.26 77.7925C340.718 80.7731 339.776 82.6746 339.433 83.4969C338.543 85.621 338.097 87.6596 338.097 89.6124C338.097 90.743 338.474 91.3083 339.228 91.3083C340.153 91.3083 341.369 90.6574 342.877 89.3555L345.189 87.3512C345.292 87.3512 345.343 87.4026 345.343 87.5054C345.343 87.6082 345.292 87.7624 345.189 87.9679C344.641 88.7902 343.716 89.7152 342.414 90.743C341.112 91.7366 340.084 92.2334 339.331 92.2334C337.618 92.2334 336.761 91.1884 336.761 89.0985C336.761 87.591 337.138 85.7238 337.892 83.4969C337.549 82.5376 336.864 81.8352 335.836 81.3898C335.528 81.2528 335.065 81.0644 334.448 80.8245C333.832 80.5847 333.335 80.3791 332.958 80.2078C332.581 80.0365 332.393 79.6939 332.393 79.18C332.393 78.6318 332.633 78.3064 333.112 78.2036H334.5C336.281 78.2036 338.183 77.998 340.204 77.5869L345.138 66.5378C345.378 65.9211 345.943 65.6127 346.834 65.6127C347.759 65.6127 348.221 65.784 348.221 66.1266C348.221 66.2294 347.57 67.7026 346.268 70.5463C345.001 73.3557 344.298 74.8289 344.161 74.9659L343.288 75.7882L342.671 77.0216C343.493 76.7818 345.994 75.9252 350.174 74.452C350.517 74.3835 350.722 74.3492 350.791 74.3492C350.894 74.3492 350.945 74.3835 350.945 74.452ZM339.845 78.4605C337.926 78.9059 336.196 79.2485 334.654 79.4884C336.436 80.4134 337.583 81.5098 338.097 82.7774C338.44 81.8181 339.022 80.3791 339.845 78.4605Z" fill="white"/>
</svg>
